<?xml version="1.0" encoding="utf-8"?>
<!-- Generator: Adobe Illustrator 27.5.0, SVG Export Plug-In . SVG Version: 6.00 Build 0)  -->
<svg version="1.1" id="Capa_1" xmlns="http://www.w3.org/2000/svg" xmlns:xlink="http://www.w3.org/1999/xlink" x="0px" y="0px"
	 viewBox="0 0 2372 1898" style="enable-background:new 0 0 2372 1898;" xml:space="preserve">
<g>
	<g>
		<g>
			
				<path style="fill:#008587;stroke:#51222E;stroke-width:11.1558;stroke-linecap:round;stroke-linejoin:round;stroke-miterlimit:10;" d="
				M1139.45,723.431h458.901v0.011c39.655,0,71.805-32.149,71.805-71.81c0-39.661-32.149-71.815-71.805-71.815l0,0H1139.45
				c-4.303,0-7.801-3.481-7.801-7.784c0-4.303,3.497-7.79,7.801-7.79h458.901c48.251,0,87.373,39.122,87.373,87.389
				c0,48.256-39.122,87.389-87.373,87.389l0,0H1139.45c-4.303,0-7.801-3.486-7.801-7.8
				C1131.649,726.923,1135.146,723.431,1139.45,723.431z"/>
			<g>
				
					<path style="fill:#DDD6D5;stroke:#51222C;stroke-width:11.1558;stroke-linecap:round;stroke-linejoin:round;stroke-miterlimit:10;" d="
					M1143.35,579.795h436.153c39.677,0,71.837,32.165,71.837,71.837c0,39.661-32.16,71.821-71.837,71.821H1143.35V579.795z"/>
				
					<path style="fill:#C6BCB7;stroke:#51222C;stroke-width:11.1558;stroke-linecap:round;stroke-linejoin:round;stroke-miterlimit:10;" d="
					M1143.35,705.63h446.481c42.52,0,61.509-32.999,61.509-53.998c0-39.672-32.16-71.837-71.837-71.837h18.75
					c39.677,0,71.837,32.165,71.837,71.837c0,39.661-32.16,71.821-71.837,71.821H1143.35V705.63z"/>
			</g>
			<g>
				<line style="fill:#51222C;" x1="1555.906" y1="607.821" x2="1210.982" y2="607.821"/>
				<line style="fill:#51222C;" x1="1630.946" y1="651.632" x2="1367.881" y2="651.632"/>
				<line style="fill:#51222C;" x1="1487.316" y1="690.236" x2="1143.35" y2="690.236"/>
				<line style="fill:#51222C;" x1="1510.39" y1="667.478" x2="1143.35" y2="667.478"/>
				<line style="fill:#51222C;" x1="1510.39" y1="627.148" x2="1143.35" y2="627.148"/>
				<line style="fill:#51222C;" x1="1288.909" y1="593.789" x2="1143.35" y2="593.789"/>
				<line style="fill:#51222C;" x1="1563.793" y1="710.576" x2="1169.093" y2="710.576"/>
				<line style="fill:#51222C;" x1="1576.344" y1="636.309" x2="1434.326" y2="636.309"/>
			</g>
		</g>
		<g>
			
				<path style="fill:#DDD6D5;stroke:#51222C;stroke-width:11.1558;stroke-linecap:round;stroke-linejoin:round;stroke-miterlimit:10;" d="
				M1111.473,766.698h516.903c29.741,0,53.839,24.278,53.839,54.227c0,29.948-24.098,54.221-53.839,54.221h-516.903V766.698z"/>
			
				<path style="fill:#2EA437;stroke:#51222C;stroke-width:11.1558;stroke-linecap:round;stroke-linejoin:round;stroke-miterlimit:10;" d="
				M1107.279,875.145h535.336c29.643-0.305,53.665-24.512,53.665-54.221c0-29.725-24.022-53.927-53.665-54.227h-535.336
				c-7.648,0-13.846-6.204-13.846-13.847c0-7.626,6.199-13.83,13.846-13.83h541.938c41.823,3.639,74.735,39.154,74.735,81.904
				c0,42.738-32.912,78.254-74.735,81.892l-541.938,0.011c-7.648,0-13.846-6.21-13.846-13.847
				C1093.432,881.355,1099.631,875.145,1107.279,875.145z"/>
			<g>
				<line style="fill:#51222C;" x1="1563.467" y1="786.803" x2="1169.311" y2="786.803"/>
				<line style="fill:#51222C;" x1="1627.624" y1="820.924" x2="1349.067" y2="820.924"/>
				<line style="fill:#51222C;" x1="1504.801" y1="845.398" x2="1111.473" y2="845.398"/>
				<line style="fill:#51222C;" x1="1524.531" y1="830.882" x2="1111.473" y2="830.882"/>
				<line style="fill:#51222C;" x1="1524.531" y1="803.33" x2="1111.473" y2="803.33"/>
				<line style="fill:#51222C;" x1="1235.94" y1="774.809" x2="1111.473" y2="774.809"/>
				<line style="fill:#51222C;" x1="1570.21" y1="853.891" x2="1133.49" y2="853.891"/>
				<line style="fill:#51222C;" x1="1580.931" y1="811.163" x2="1405.881" y2="811.163"/>
			</g>
			
				<path style="fill:#C6BCB7;stroke:#51222C;stroke-width:11.1558;stroke-linecap:round;stroke-linejoin:round;stroke-miterlimit:10;" d="
				M1630.685,860.111c39.514,0,51.53-27.966,51.53-39.187c0-29.948-24.098-54.227-53.839-54.227h14.054
				c29.731,0,53.851,24.278,53.851,54.227c0,29.948-24.12,54.221-53.851,54.221h-530.956v-15.034H1630.685z"/>
		</g>
		<g>
			
				<path style="fill:#DDD6D5;stroke:#51222C;stroke-width:11.1558;stroke-linecap:round;stroke-linejoin:round;stroke-miterlimit:10;" d="
				M1139.994,920.194h455.774c32.607,0,59.047,26.615,59.047,59.439c0,32.835-26.44,59.45-59.047,59.45h-455.774V920.194z"/>
			
				<path style="fill:#E85811;stroke:#512224;stroke-width:11.1558;stroke-linecap:round;stroke-linejoin:round;stroke-miterlimit:10;" d="
				M1138.426,1038.952h473.042h0.011h0.044c32.356-0.338,58.688-26.942,58.688-59.32c0-32.367-26.332-58.971-58.688-59.303h-0.044
				h-0.011h-473.042c-4.827,0-8.748-3.927-8.748-8.743c0-4.826,3.922-8.759,8.748-8.759h479.415
				c18.934,1.694,36.507,10.442,49.514,24.643c13.128,14.304,20.351,32.824,20.351,52.162c0,19.337-7.223,37.869-20.351,52.184
				c-13.008,14.19-30.58,22.932-49.514,24.643h-479.415c-4.827,0-8.748-3.922-8.748-8.754
				C1129.677,1042.88,1133.599,1038.952,1138.426,1038.952z"/>
			<g>
				<line style="fill:#51222C;" x1="1495.715" y1="942.232" x2="1260.072" y2="942.232"/>
				<line style="fill:#51222C;" x1="1594.952" y1="979.633" x2="1320.164" y2="979.633"/>
				<line style="fill:#51222C;" x1="1431.417" y1="1006.476" x2="1139.994" y2="1006.476"/>
				<line style="fill:#51222C;" x1="1453.042" y1="990.571" x2="1139.994" y2="990.571"/>
				<line style="fill:#51222C;" x1="1453.042" y1="960.35" x2="1139.994" y2="960.35"/>
				<line style="fill:#51222C;" x1="1333.118" y1="929.083" x2="1139.994" y2="929.083"/>
				<line style="fill:#51222C;" x1="1503.112" y1="1015.786" x2="1252.151" y2="1015.786"/>
				<line style="fill:#51222C;" x1="1514.867" y1="968.945" x2="1382.447" y2="968.945"/>
			</g>
			
				<path style="fill:#C6BCB7;stroke:#51222C;stroke-width:11.1558;stroke-linecap:round;stroke-linejoin:round;stroke-miterlimit:10;" d="
				M1598.307,1022.611c43.305,0,56.509-30.657,56.509-42.978c0-32.824-26.44-59.439-59.047-59.439h15.405
				c32.607,0,59.036,26.615,59.036,59.439c0,32.835-26.43,59.45-59.036,59.45h-471.179v-16.472H1598.307z"/>
		</g>
		<g>
			
				<path style="fill:#92B545;stroke:#51222C;stroke-width:11.1558;stroke-linecap:round;stroke-linejoin:round;stroke-miterlimit:10;" d="
				M1165.726,1200.907c0,0-15.252-30.983-15.252-71.172c0-40.189,15.252-71.161,15.252-71.161h492.761c0,0,8.41,17.093,8.41,71.161
				c0,54.068-8.41,71.172-8.41,71.172H1165.726z"/>
			
				<path style="fill:#BDC042;stroke:#51222C;stroke-width:11.1558;stroke-linecap:round;stroke-linejoin:round;stroke-miterlimit:10;" d="
				M1558.052,1164.471c-19.196,0-34.753-15.552-34.753-34.736c0-19.185,15.557-34.742,34.753-34.742
				c19.185,0,34.731,15.557,34.731,34.742C1592.783,1148.919,1577.237,1164.471,1558.052,1164.471z"/>
			
				<path style="fill:#BDC042;stroke:#51222C;stroke-width:11.1558;stroke-linecap:round;stroke-linejoin:round;stroke-miterlimit:10;" d="
				M1643.834,1129.735c0-54.069-8.41-71.161-8.41-71.161h-33.641c0,0,8.41,17.093,8.41,71.161c0,54.068-8.41,71.172-8.41,71.172
				h33.641C1635.424,1200.907,1643.834,1183.803,1643.834,1129.735z"/>
			
				<path style="fill:#BDC042;stroke:#51222C;stroke-width:11.1558;stroke-linecap:round;stroke-linejoin:round;stroke-miterlimit:10;" d="
				M1202.898,1129.735c0-54.069,8.41-71.161,8.41-71.161h33.641c0,0-8.41,17.093-8.41,71.161c0,54.068,8.41,71.172,8.41,71.172
				h-33.641C1211.308,1200.907,1202.898,1183.803,1202.898,1129.735z"/>
			
				<path style="fill:#BDC042;stroke:#51222C;stroke-width:11.1558;stroke-linecap:round;stroke-linejoin:round;stroke-miterlimit:10;" d="
				M1172.143,1129.735c0-54.069,8.41-71.161,8.41-71.161h16.821c0,0-8.421,17.093-8.421,71.161c0,54.068,8.421,71.172,8.421,71.172
				h-16.821C1180.554,1200.907,1172.143,1183.803,1172.143,1129.735z"/>
		</g>
		<g>
			
				<path style="fill:#24465E;stroke:#51222C;stroke-width:11.1558;stroke-linecap:round;stroke-linejoin:round;stroke-miterlimit:10;" d="
				M1050.857,1343.241c0,0-15.252-30.978-15.252-71.172c0-40.179,15.252-71.162,15.252-71.162h722.511c0,0,8.41,17.105,8.41,71.162
				c0,54.079-8.41,71.172-8.41,71.172H1050.857z"/>
			
				<path style="fill:#376280;stroke:#51222C;stroke-width:11.1558;stroke-linecap:round;stroke-linejoin:round;stroke-miterlimit:10;" d="
				M1758.714,1272.069c0-54.057-8.41-71.162-8.41-71.162h-33.652c0,0,8.422,17.105,8.422,71.162c0,54.079-8.422,71.172-8.422,71.172
				h33.652C1750.304,1343.241,1758.714,1326.148,1758.714,1272.069z"/>
			
				<path style="fill:#376280;stroke:#51222C;stroke-width:11.1558;stroke-linecap:round;stroke-linejoin:round;stroke-miterlimit:10;" d="
				M1088.018,1272.069c0-54.057,8.421-71.162,8.421-71.162h33.631c0,0-8.399,17.105-8.399,71.162
				c0,54.079,8.399,71.172,8.399,71.172h-33.631C1096.439,1343.241,1088.018,1326.148,1088.018,1272.069z"/>
			
				<path style="fill:#376280;stroke:#51222C;stroke-width:11.1558;stroke-linecap:round;stroke-linejoin:round;stroke-miterlimit:10;" d="
				M1057.263,1272.069c0-54.057,8.421-71.162,8.421-71.162h16.81c0,0-8.41,17.105-8.41,71.162c0,54.079,8.41,71.172,8.41,71.172
				h-16.81C1065.684,1343.241,1057.263,1326.148,1057.263,1272.069z"/>
		</g>
		<g>
			
				<path style="fill:#008587;stroke:#51222E;stroke-width:11.1558;stroke-linecap:round;stroke-linejoin:round;stroke-miterlimit:10;" d="
				M1083.409,1485.455c0,0-15.241-30.972-15.241-71.172c0-40.189,15.241-71.173,15.241-71.173h657.395c0,0,8.41,17.104,8.41,71.173
				c0,54.068-8.41,71.172-8.41,71.172H1083.409z"/>
			
				<path style="fill:#76C5C1;stroke:#51222C;stroke-width:11.1558;stroke-linecap:round;stroke-linejoin:round;stroke-miterlimit:10;" d="
				M1726.151,1414.283c0-54.069-8.421-71.173-8.421-71.173H1684.1c0,0,8.41,17.104,8.41,71.173c0,54.068-8.41,71.172-8.41,71.172
				h33.631C1717.73,1485.455,1726.151,1468.351,1726.151,1414.283z"/>
		</g>
	</g>
	<g>
		<g>
			<g>
				
					<path style="fill:#E83B5F;stroke:#51222C;stroke-width:11.1558;stroke-linecap:round;stroke-linejoin:round;stroke-miterlimit:10;" d="
					M1702.097,368.897c0,0-9.151,18.586-9.151,42.695c0,24.109,9.151,42.684,9.151,42.684h295.584c0,0,5.044-10.263,5.044-42.684
					c0-32.432-5.044-42.695-5.044-42.695H1702.097z"/>
				
					<path style="fill:#D21B37;stroke:#51222C;stroke-width:11.1558;stroke-linecap:round;stroke-linejoin:round;stroke-miterlimit:10;" d="
					M1937.436,390.752c-11.516,0-20.841,9.326-20.841,20.841c0,11.504,9.326,20.841,20.841,20.841
					c11.504,0,20.841-9.337,20.841-20.841C1958.277,400.077,1948.941,390.752,1937.436,390.752z"/>
				
					<path style="fill:#D21B37;stroke:#51222C;stroke-width:11.1558;stroke-linecap:round;stroke-linejoin:round;stroke-miterlimit:10;" d="
					M1988.89,411.592c0,32.422-5.044,42.684-5.044,42.684h-20.176c0,0,5.055-10.263,5.055-42.684
					c0-32.432-5.055-42.695-5.055-42.695h20.176C1983.846,368.897,1988.89,379.16,1988.89,411.592z"/>
				
					<path style="fill:#D21B37;stroke:#51222C;stroke-width:11.1558;stroke-linecap:round;stroke-linejoin:round;stroke-miterlimit:10;" d="
					M1724.398,411.592c0,32.422,5.044,42.684,5.044,42.684h20.176c0,0-5.044-10.263-5.044-42.684
					c0-32.432,5.044-42.695,5.044-42.695h-20.176C1729.442,368.897,1724.398,379.16,1724.398,411.592z"/>
				
					<path style="fill:#D21B37;stroke:#51222C;stroke-width:11.1558;stroke-linecap:round;stroke-linejoin:round;stroke-miterlimit:10;" d="
					M1705.943,411.592c0,32.422,5.055,42.684,5.055,42.684h10.088c0,0-5.055-10.263-5.055-42.684
					c0-32.432,5.055-42.695,5.055-42.695h-10.088C1710.998,368.897,1705.943,379.16,1705.943,411.592z"/>
			</g>
			<g>
				
					<path style="fill:#4A2681;stroke:#51222C;stroke-width:11.1558;stroke-linecap:round;stroke-linejoin:round;stroke-miterlimit:10;" d="
					M1676.18,454.276c0,0-10.775,21.887-10.775,50.282c0,28.401,10.775,50.283,10.775,50.283h348.16c0,0,5.938-12.082,5.938-50.283
					c0-38.19-5.938-50.282-5.938-50.282H1676.18z"/>
				
					<path style="fill:#664A98;stroke:#51222C;stroke-width:11.1558;stroke-linecap:round;stroke-linejoin:round;stroke-miterlimit:10;" d="
					M1982.31,454.276c0,0,1.688,3.432,3.268,12.403c9.086,5.453,15.611,20.356,15.611,37.879c0,17.535-6.526,32.427-15.611,37.891
					c-1.58,8.971-3.268,12.392-3.268,12.392h-23.761c0,0,2.571-5.224,4.325-19.664c-5.033-7.354-8.236-18.346-8.236-30.619
					c0-12.272,3.203-23.254,8.236-30.613c-1.754-14.44-4.325-19.669-4.325-19.669H1982.31z"/>
				
					<path style="fill:#664A98;stroke:#51222C;stroke-width:11.1558;stroke-linecap:round;stroke-linejoin:round;stroke-miterlimit:10;" d="
					M1702.445,504.559c0,38.201,5.949,50.283,5.949,50.283h23.76c0,0-5.948-12.082-5.948-50.283c0-38.19,5.948-50.282,5.948-50.282
					h-23.76C1708.394,454.276,1702.445,466.369,1702.445,504.559z"/>
				
					<path style="fill:#664A98;stroke:#51222C;stroke-width:11.1558;stroke-linecap:round;stroke-linejoin:round;stroke-miterlimit:10;" d="
					M1680.712,504.559c0,38.201,5.937,50.283,5.937,50.283h11.896c0,0-5.948-12.082-5.948-50.283c0-38.19,5.948-50.282,5.948-50.282
					h-11.896C1686.649,454.276,1680.712,466.369,1680.712,504.559z"/>
			</g>
			<g>
				
					<path style="fill:#F69F26;stroke:#51222C;stroke-width:11.1558;stroke-linecap:round;stroke-linejoin:round;stroke-miterlimit:10;" d="
					M1633.19,725.529c0,0-9.14,18.585-9.14,42.689c0,24.114,9.14,42.695,9.14,42.695h433.398c0,0,5.055-10.257,5.055-42.695
					c0-32.421-5.055-42.689-5.055-42.689H1633.19z"/>
				
					<path style="fill:#F9B65A;stroke:#51222C;stroke-width:11.1558;stroke-linecap:round;stroke-linejoin:round;stroke-miterlimit:10;" d="
					M2057.807,768.218c0,32.438-5.055,42.695-5.055,42.695h-20.176c0,0,5.055-10.257,5.055-42.695
					c0-32.421-5.055-42.689-5.055-42.689h20.176C2052.752,725.529,2057.807,735.796,2057.807,768.218z"/>
				
					<path style="fill:#F9B65A;stroke:#51222C;stroke-width:11.1558;stroke-linecap:round;stroke-linejoin:round;stroke-miterlimit:10;" d="
					M1655.491,768.218c0,32.438,5.044,42.695,5.044,42.695h20.176c0,0-5.044-10.257-5.044-42.695
					c0-32.421,5.044-42.689,5.044-42.689h-20.176C1660.535,725.529,1655.491,735.796,1655.491,768.218z"/>
				
					<path style="fill:#F9B65A;stroke:#51222C;stroke-width:11.1558;stroke-linecap:round;stroke-linejoin:round;stroke-miterlimit:10;" d="
					M1637.036,768.218c0,32.438,5.044,42.695,5.044,42.695h10.088c0,0-5.044-10.257-5.044-42.695
					c0-32.421,5.044-42.689,5.044-42.689h-10.088C1642.08,725.529,1637.036,735.796,1637.036,768.218z"/>
			</g>
			<g>
				
					<path style="fill:#EC7029;stroke:#512224;stroke-width:11.1558;stroke-linecap:round;stroke-linejoin:round;stroke-miterlimit:10;" d="
					M1702.097,554.842c0,0-9.151,18.58-9.151,42.695c0,24.109,9.151,42.684,9.151,42.684h295.584c0,0,5.044-10.257,5.044-42.684
					c0-32.433-5.044-42.695-5.044-42.695H1702.097z"/>
				
					<path style="fill:#F5A582;stroke:#51222C;stroke-width:11.1558;stroke-linecap:round;stroke-linejoin:round;stroke-miterlimit:10;" d="
					M1967.057,597.537c0,32.427-5.055,42.684-5.055,42.684h-20.176c0,0,5.055-10.257,5.055-42.684
					c0-32.433-5.055-42.695-5.055-42.695h20.176C1962.003,554.842,1967.057,565.104,1967.057,597.537z"/>
				
					<path style="fill:#F5A582;stroke:#51222C;stroke-width:11.1558;stroke-linecap:round;stroke-linejoin:round;stroke-miterlimit:10;" d="
					M1890.155,597.537c0,32.427-5.044,42.684-5.044,42.684h-94.802c0,0-3.486-10.257-3.486-42.684
					c0-32.433,3.486-42.695,3.486-42.695h94.802C1885.11,554.842,1890.155,565.104,1890.155,597.537z"/>
				
					<path style="fill:#F5A582;stroke:#51222C;stroke-width:11.1558;stroke-linecap:round;stroke-linejoin:round;stroke-miterlimit:10;" d="
					M1985.501,597.537c0,32.427-5.033,42.684-5.033,42.684h-10.099c0,0,5.043-10.257,5.043-42.684
					c0-32.433-5.043-42.695-5.043-42.695h10.099C1980.468,554.842,1985.501,565.104,1985.501,597.537z"/>
			</g>
			<g>
				
					<path style="fill:#008587;stroke:#51222E;stroke-width:11.1558;stroke-linecap:round;stroke-linejoin:round;stroke-miterlimit:10;" d="
					M1652.724,640.22c0,0-9.141,18.586-9.141,42.695c0,24.109,9.141,42.695,9.141,42.695h394.342c0,0,5.044-10.262,5.044-42.695
					c0-32.432-5.044-42.695-5.044-42.695H1652.724z"/>
				
					<path style="fill:#75C4B6;stroke:#51222C;stroke-width:11.1558;stroke-linecap:round;stroke-linejoin:round;stroke-miterlimit:10;" d="
					M2038.274,682.915c0,32.433-5.055,42.695-5.055,42.695h-20.176c0,0,5.055-10.262,5.055-42.695
					c0-32.432-5.055-42.695-5.055-42.695h20.176C2033.219,640.22,2038.274,650.483,2038.274,682.915z"/>
			</g>
		</g>
		<g>
			
				<path style="fill:#E83B5F;stroke:#51222C;stroke-width:11.1558;stroke-linecap:round;stroke-linejoin:round;stroke-miterlimit:10;" d="
				M1624.584,810.913c0,0-14.01,28.456-14.01,65.387s14.01,65.404,14.01,65.404h452.789c0,0,7.735-15.715,7.735-65.404
				c0-49.672-7.735-65.387-7.735-65.387H1624.584z"/>
			
				<path style="fill:#D21B37;stroke:#51222C;stroke-width:11.1558;stroke-linecap:round;stroke-linejoin:round;stroke-miterlimit:10;" d="
				M1985.077,844.38c-17.627,0-31.931,14.288-31.931,31.92c0,17.638,14.304,31.931,31.931,31.931
				c17.638,0,31.92-14.293,31.92-31.931C2016.997,858.668,2002.715,844.38,1985.077,844.38z"/>
			
				<path style="fill:#D21B37;stroke:#51222C;stroke-width:11.1558;stroke-linecap:round;stroke-linejoin:round;stroke-miterlimit:10;" d="
				M2063.908,876.3c0,49.689-7.735,65.404-7.735,65.404h-30.908c0,0,7.724-15.715,7.724-65.404c0-49.672-7.724-65.387-7.724-65.387
				h30.908C2056.173,810.913,2063.908,826.628,2063.908,876.3z"/>
			
				<path style="fill:#D21B37;stroke:#51222C;stroke-width:11.1558;stroke-linecap:round;stroke-linejoin:round;stroke-miterlimit:10;" d="
				M1658.749,876.3c0,49.689,7.735,65.404,7.735,65.404h30.907c0,0-7.735-15.715-7.735-65.404c0-49.672,7.735-65.387,7.735-65.387
				h-30.907C1666.484,810.913,1658.749,826.628,1658.749,876.3z"/>
			
				<path style="fill:#D21B37;stroke:#51222C;stroke-width:11.1558;stroke-linecap:round;stroke-linejoin:round;stroke-miterlimit:10;" d="
				M1630.489,876.3c0,49.689,7.735,65.404,7.735,65.404h15.448c0,0-7.735-15.715-7.735-65.404c0-49.672,7.735-65.387,7.735-65.387
				h-15.448C1638.224,810.913,1630.489,826.628,1630.489,876.3z"/>
		</g>
		<g>
			
				<path style="fill:#4A2681;stroke:#51222C;stroke-width:11.1558;stroke-linecap:round;stroke-linejoin:round;stroke-miterlimit:10;" d="
				M1584.896,941.704c0,0-16.505,33.516-16.505,77.023c0,43.496,16.505,77.017,16.505,77.017h533.298c0,0,9.108-18.509,9.108-77.017
				c0-58.519-9.108-77.023-9.108-77.023H1584.896z"/>
			
				<path style="fill:#664A98;stroke:#51222C;stroke-width:11.1558;stroke-linecap:round;stroke-linejoin:round;stroke-miterlimit:10;" d="
				M2053.83,941.704c0,0,2.582,5.246,5.001,18.994c13.923,8.361,23.913,31.179,23.913,58.029c0,26.849-9.99,49.667-23.913,58.04
				c-2.419,13.732-5.001,18.978-5.001,18.978h-36.42c0,0,3.944-7.996,6.635-30.123c-7.713-11.275-12.616-28.096-12.616-46.894
				c0-18.798,4.902-35.635,12.616-46.9c-2.691-22.121-6.635-30.123-6.635-30.123H2053.83z"/>
			
				<path style="fill:#664A98;stroke:#51222C;stroke-width:11.1558;stroke-linecap:round;stroke-linejoin:round;stroke-miterlimit:10;" d="
				M1625.129,1018.727c0,58.508,9.097,77.017,9.097,77.017h36.409c0,0-9.108-18.509-9.108-77.017
				c0-58.519,9.108-77.023,9.108-77.023h-36.409C1634.225,941.704,1625.129,960.208,1625.129,1018.727z"/>
			
				<path style="fill:#664A98;stroke:#51222C;stroke-width:11.1558;stroke-linecap:round;stroke-linejoin:round;stroke-miterlimit:10;" d="
				M1591.825,1018.727c0,58.508,9.108,77.017,9.108,77.017h18.205c0,0-9.097-18.509-9.097-77.017
				c0-58.519,9.097-77.023,9.097-77.023h-18.205C1600.932,941.704,1591.825,960.208,1591.825,1018.727z"/>
		</g>
		<g>
			
				<path style="fill:#F69F26;stroke:#51222C;stroke-width:11.1558;stroke-linecap:round;stroke-linejoin:round;stroke-miterlimit:10;" d="
				M1553.553,1357.208c0,0-14.01,28.456-14.01,65.388s14.01,65.398,14.01,65.398h594.862c0,0,7.735-15.709,7.735-65.398
				c0-49.667-7.735-65.388-7.735-65.388H1553.553z"/>
			
				<path style="fill:#F9B65A;stroke:#51222C;stroke-width:11.1558;stroke-linecap:round;stroke-linejoin:round;stroke-miterlimit:10;" d="
				M2134.95,1422.595c0,49.689-7.735,65.398-7.735,65.398h-30.907c0,0,7.735-15.709,7.735-65.398
				c0-49.667-7.735-65.388-7.735-65.388h30.907C2127.215,1357.208,2134.95,1372.928,2134.95,1422.595z"/>
			
				<path style="fill:#F9B65A;stroke:#51222C;stroke-width:11.1558;stroke-linecap:round;stroke-linejoin:round;stroke-miterlimit:10;" d="
				M1587.707,1422.595c0,49.689,7.735,65.398,7.735,65.398h30.907c0,0-7.735-15.709-7.735-65.398
				c0-49.667,7.735-65.388,7.735-65.388h-30.907C1595.442,1357.208,1587.707,1372.928,1587.707,1422.595z"/>
			
				<path style="fill:#F9B65A;stroke:#51222C;stroke-width:11.1558;stroke-linecap:round;stroke-linejoin:round;stroke-miterlimit:10;" d="
				M1559.447,1422.595c0,49.689,7.735,65.398,7.735,65.398h15.449c0,0-7.735-15.709-7.735-65.398
				c0-49.667,7.735-65.388,7.735-65.388h-15.449C1567.182,1357.208,1559.447,1372.928,1559.447,1422.595z"/>
		</g>
		<g>
			
				<path style="fill:#EC7029;stroke:#512224;stroke-width:11.1558;stroke-linecap:round;stroke-linejoin:round;stroke-miterlimit:10;" d="
				M1624.584,1095.744c0,0-14.01,28.467-14.01,65.398c0,36.927,14.01,65.388,14.01,65.388h452.789c0,0,7.735-15.715,7.735-65.388
				c0-49.683-7.735-65.398-7.735-65.398H1624.584z"/>
			
				<path style="fill:#F5A582;stroke:#51222C;stroke-width:11.1558;stroke-linecap:round;stroke-linejoin:round;stroke-miterlimit:10;" d="
				M2030.451,1161.143c0,49.673-7.724,65.388-7.724,65.388h-30.907c0,0,7.724-15.715,7.724-65.388
				c0-49.683-7.724-65.398-7.724-65.398h30.907C2022.728,1095.744,2030.451,1111.459,2030.451,1161.143z"/>
			
				<path style="fill:#F5A582;stroke:#51222C;stroke-width:11.1558;stroke-linecap:round;stroke-linejoin:round;stroke-miterlimit:10;" d="
				M1912.662,1161.143c0,49.673-7.724,65.388-7.724,65.388h-145.221c0,0-5.349-15.715-5.349-65.388
				c0-49.683,5.349-65.398,5.349-65.398h145.221C1904.938,1095.744,1912.662,1111.459,1912.662,1161.143z"/>
			
				<path style="fill:#F5A582;stroke:#51222C;stroke-width:11.1558;stroke-linecap:round;stroke-linejoin:round;stroke-miterlimit:10;" d="
				M2058.711,1161.143c0,49.673-7.724,65.388-7.724,65.388h-15.459c0,0,7.735-15.715,7.735-65.388
				c0-49.683-7.735-65.398-7.735-65.398h15.459C2050.987,1095.744,2058.711,1111.459,2058.711,1161.143z"/>
		</g>
		<g>
			
				<path style="fill:#008587;stroke:#51222E;stroke-width:11.1558;stroke-linecap:round;stroke-linejoin:round;stroke-miterlimit:10;" d="
				M1583.469,1226.531c0,0-14.01,28.472-14.01,65.398c0,36.932,14.01,65.399,14.01,65.399h535.03c0,0,7.724-15.715,7.724-65.399
				c0-49.689-7.724-65.398-7.724-65.398H1583.469z"/>
			
				<path style="fill:#75C4B6;stroke:#51222C;stroke-width:11.1558;stroke-linecap:round;stroke-linejoin:round;stroke-miterlimit:10;" d="
				M2105.034,1291.929c0,49.683-7.735,65.399-7.735,65.399h-30.907c0,0,7.724-15.715,7.724-65.399
				c0-49.689-7.724-65.398-7.724-65.398h30.907C2097.299,1226.531,2105.034,1242.24,2105.034,1291.929z"/>
		</g>
	</g>
	<g>
		<g>
			<g>
				
					<path style="fill:#DDD6D5;stroke:#51222C;stroke-width:11.1558;stroke-linecap:round;stroke-linejoin:round;stroke-miterlimit:10;" d="
					M919.973,1145.172H442.333c-16.581,0-30.047,13.52-30.047,30.275c0,16.685,13.466,30.237,30.047,30.237h477.639V1145.172z"/>
				
					<path style="fill:#008587;stroke:#51222E;stroke-width:11.1558;stroke-linecap:round;stroke-linejoin:round;stroke-miterlimit:10;" d="
					M920.79,1205.619H434.337l0,0l0,0c-16.439-0.147-29.861-13.689-29.861-30.172c0-16.472,13.422-30.014,29.861-30.166l0,0l0,0
					H920.79c2.44,0,4.456-1.977,4.456-4.456c0-2.484-2.015-4.467-4.456-4.467H431.102c-9.631,0.866-18.564,5.289-25.166,12.529
					c-6.689,7.288-10.382,16.701-10.382,26.56c0,9.816,3.693,19.272,10.382,26.517c6.602,7.256,15.536,11.706,25.166,12.572H920.79
					c2.44,0,4.456-2.021,4.456-4.456C925.245,1207.591,923.23,1205.619,920.79,1205.619z"/>
				<g>
					<line style="fill:#51222C;" x1="493.253" y1="1156.425" x2="858.91" y2="1156.425"/>
					<line style="fill:#51222C;" x1="442.758" y1="1175.447" x2="743.561" y2="1175.447"/>
					<line style="fill:#51222C;" x1="686.944" y1="1189.114" x2="919.973" y2="1189.114"/>
					<line style="fill:#51222C;" x1="675.929" y1="1181.025" x2="919.973" y2="1181.025"/>
					<line style="fill:#51222C;" x1="675.929" y1="1165.626" x2="919.973" y2="1165.626"/>
					<line style="fill:#51222C;" x1="736.948" y1="1149.726" x2="919.973" y2="1149.726"/>
					<line style="fill:#51222C;" x1="489.473" y1="1193.82" x2="862.897" y2="1193.82"/>
					<line style="fill:#51222C;" x1="483.503" y1="1170.021" x2="711.837" y2="1170.021"/>
				</g>
				
					<path style="fill:#C6BCB7;stroke:#51222C;stroke-width:11.1558;stroke-linecap:round;stroke-linejoin:round;stroke-miterlimit:10;" d="
					M441.048,1197.306c-22.018,0-28.761-15.6-28.761-21.859c0-16.755,13.466-30.275,30.047-30.275h-7.822
					c-16.614,0-30.036,13.52-30.036,30.275c0,16.685,13.422,30.237,30.036,30.237h485.461v-8.378H441.048z"/>
			</g>
			<g>
				
					<path style="fill:#24465E;stroke:#51222C;stroke-width:11.1558;stroke-linecap:round;stroke-linejoin:round;stroke-miterlimit:10;" d="
					M989.794,1345.594c0,0,14.021-28.467,14.021-65.518c0-36.953-14.021-65.464-14.021-65.464H324.697
					c0,0-7.724,15.731-7.724,65.464c0,49.765,7.724,65.518,7.724,65.518H989.794z"/>
				
					<path style="fill:#376280;stroke:#51222C;stroke-width:11.1558;stroke-linecap:round;stroke-linejoin:round;stroke-miterlimit:10;" d="
					M338.206,1280.076c0-49.733,7.724-65.464,7.724-65.464h31.005c0,0-7.767,15.731-7.767,65.464
					c0,49.765,7.767,65.518,7.767,65.518h-31.005C345.929,1345.594,338.206,1329.841,338.206,1280.076z"/>
				
					<path style="fill:#376280;stroke:#51222C;stroke-width:11.1558;stroke-linecap:round;stroke-linejoin:round;stroke-miterlimit:10;" d="
					M955.575,1280.076c0-49.733-7.735-65.464-7.735-65.464h-30.962c0,0,7.724,15.731,7.724,65.464
					c0,49.765-7.724,65.518-7.724,65.518h30.962C947.84,1345.594,955.575,1329.841,955.575,1280.076z"/>
				
					<path style="fill:#376280;stroke:#51222C;stroke-width:11.1558;stroke-linecap:round;stroke-linejoin:round;stroke-miterlimit:10;" d="
					M983.911,1280.076c0-49.733-7.768-65.464-7.768-65.464h-15.481c0,0,7.757,15.731,7.757,65.464
					c0,49.765-7.757,65.518-7.757,65.518h15.481C976.144,1345.594,983.911,1329.841,983.911,1280.076z"/>
			</g>
			<g>
				
					<path style="fill:#92B545;stroke:#51222C;stroke-width:11.1558;stroke-linecap:round;stroke-linejoin:round;stroke-miterlimit:10;" d="
					M959.835,1476.522c0,0,14.032-28.521,14.032-65.54c0-36.965-14.032-65.492-14.032-65.492H354.688c0,0-7.757,15.726-7.757,65.492
					c0,49.786,7.757,65.54,7.757,65.54H959.835z"/>
				
					<path style="fill:#BDC042;stroke:#51222C;stroke-width:11.1558;stroke-linecap:round;stroke-linejoin:round;stroke-miterlimit:10;" d="
					M368.187,1410.982c0-49.765,7.735-65.492,7.735-65.492h30.983c0,0-7.757,15.726-7.757,65.492c0,49.786,7.757,65.54,7.757,65.54
					h-30.983C375.922,1476.522,368.187,1460.769,368.187,1410.982z"/>
			</g>
			<g>
				<g>
					
						<path style="fill:#DDD6D5;stroke:#51222C;stroke-width:11.1558;stroke-linecap:round;stroke-linejoin:round;stroke-miterlimit:10;" d="
						M225.253,1048.032c0,0,76.761-1.672,159.427-1.857c88.364-0.174,183.536-3.486,234.348,22.867
						c52.805,27.405,41.366,63.046,41.366,63.046l-59.461-10.404c-42.738,0-375.679,0-375.679,0V1048.032z"/>
					<g>
						<g>
							<path style="fill:#51222C;" d="M615.596,1086.844c-39.895-26.468-237.561-15.535-237.561-15.535"/>
							<path style="fill:#51222C;" d="M462.913,1093.435c-131.189-3.601-237.659,8.476-237.659,8.476"/>
							<path style="fill:#51222C;" d="M556.44,1083.668c0,0-154.808-8.971-317.014,3.176"/>
							<path style="fill:#51222C;" d="M490.704,1054.951c-87.35-10.96-258.162,6.689-258.162,6.689"/>
							<line style="fill:#51222C;" x1="533.17" y1="1101.911" x2="320.361" y2="1101.911"/>
							<path style="fill:#51222C;" d="M546.396,1065.164c-83.483-13.803-277.609,3.878-277.609,3.878"/>
							<path style="fill:#51222C;" d="M657.703,1111.656c0,0-4.423-18.221-65.987-27.988"/>
						</g>
						<path style="fill:#51222C;" d="M657.703,1117.271c0,0-12.42-23.836-121.668-23.836"/>
					</g>
				</g>
				<g>
					
						<path style="fill:#DDD6D5;stroke:#51222C;stroke-width:11.1558;stroke-linecap:round;stroke-linejoin:round;stroke-miterlimit:10;" d="
						M1095.534,1048.032c0,0-76.718-1.672-159.395-1.857c-88.407-0.174-199.333-1.176-248.238,28.521
						c-32.77,19.92-27.519,57.391-27.519,57.391l59.472-10.404c42.75,0,375.68,0,375.68,0V1048.032z"/>
					
						<path style="fill:#C6BCB7;stroke:#51222C;stroke-width:11.1558;stroke-linecap:round;stroke-linejoin:round;stroke-miterlimit:10;" d="
						M748.409,1121.683c42.738,0,347.125,0,347.125,0v-13.966l0,0c-309.409,0-331.993,0-343.879,0
						c-24.218,0-91.273,24.371-91.273,24.371L748.409,1121.683z"/>
					<g>
						<g>
							<path style="fill:#51222C;" d="M705.213,1086.844c39.895-26.468,237.562-15.535,237.562-15.535"/>
							<path style="fill:#51222C;" d="M857.919,1093.435c131.2-3.601,237.616,8.476,237.616,8.476"/>
							<path style="fill:#51222C;" d="M764.337,1083.668c0,0,154.862-8.971,317.013,3.176"/>
							<path style="fill:#51222C;" d="M830.084,1054.951c87.383-10.96,258.162,6.689,258.162,6.689"/>
							<line style="fill:#51222C;" x1="787.639" y1="1101.911" x2="1000.438" y2="1101.911"/>
							<path style="fill:#51222C;" d="M774.381,1065.164c83.538-13.803,277.653,3.878,277.653,3.878"/>
							<path style="fill:#51222C;" d="M663.107,1111.656c0,0,4.412-18.221,65.997-27.988"/>
						</g>
						<path style="fill:#51222C;" d="M663.107,1117.271c0,0,12.441-23.836,121.668-23.836"/>
					</g>
				</g>
				
					<path style="fill:#C6BCB7;stroke:#51222C;stroke-width:11.1558;stroke-linecap:round;stroke-linejoin:round;stroke-miterlimit:10;" d="
					M584.33,1121.683c-42.75,0-359.077,0-359.077,0v-13.966l0,0c309.431,0,332.004,0,343.911,0
					c24.208,0,91.229,24.371,91.229,24.371L584.33,1121.683z"/>
				<g>
					
						<path style="fill:#E54117;stroke:#512224;stroke-width:11.1558;stroke-linecap:round;stroke-linejoin:round;stroke-miterlimit:10;" d="
						M1096.929,1121.564H722.818l-58.23,14.866h432.341c4.02,0,7.397-3.339,7.397-7.403
						C1104.326,1124.897,1100.949,1121.564,1096.929,1121.564z"/>
					
						<path style="fill:#E54117;stroke:#512224;stroke-width:11.1558;stroke-linecap:round;stroke-linejoin:round;stroke-miterlimit:10;" d="
						M223.913,1121.564h374.078l43.327,14.866H223.913c-4.074,0-7.408-3.339-7.408-7.403
						C216.505,1124.897,219.839,1121.564,223.913,1121.564z"/>
				</g>
				
					<path style="fill:#E85811;stroke:#512224;stroke-width:11.1558;stroke-linecap:round;stroke-linejoin:round;stroke-miterlimit:10;" d="
					M719.855,1121.683c0,0-27.835,4.053-59.461,4.053c-31.572,0-59.461-4.053-59.461-4.053h-5.6
					c1.591,15.792,48.687,15.541,65.05,15.541l0,0h0.011l0,0l0,0c16.407,0,63.481,0.25,65.072-15.541H719.855z"/>
			</g>
		</g>
		<g>
			
				<polygon style="fill:#B92D43;stroke:#51222C;stroke-width:11.1558;stroke-linecap:round;stroke-linejoin:round;stroke-miterlimit:10;" points="
				1213.04,1481.779 1245.048,1247.769 963.67,1247.769 995.067,1481.779 			"/>
			
				<path style="fill:#E83B5F;stroke:#51222C;stroke-width:11.1558;stroke-linecap:round;stroke-linejoin:round;stroke-miterlimit:10;" d="
				M1254.471,1247.769v-47.641c0-9.718-7.789-17.573-17.496-17.573H971.699c-9.707,0-17.518,7.855-17.518,17.573v47.641H1254.471z"
				/>
			<g>
				
					<path style="fill:#98AC52;stroke:#51222C;stroke-width:11.1558;stroke-linecap:round;stroke-linejoin:round;stroke-miterlimit:10;" d="
					M1006.648,1182.556h197.84c29.273-134.621,50.866-313.44-107.233-313.44C982.234,869.116,941.739,979.529,1006.648,1182.556z"/>
				<g>
					<path style="fill:#51222C;" d="M1017.444,1150.014c1.046,10.862,2.168,21.691,3.268,32.541h5.306
						c-4.412-46.056-8.879-92.112-12.529-138.352c-2.44-31.327-4.641-62.855,2.43-94.95c5.654-25.705,17.877-62.571,70.998-77.437
						c-26.865,29.938-31.343,60.681-36.768,91.48c-7.114,40.461-3.127,80.422,1.024,120.007
						c3.486,33.064,7.005,66.145,10.458,99.252h4.456c-3.845-34.84-7.136-69.773-10.829-104.629
						c-4.369-41.192-6.667-82.459,1.013-124.593c4.848-27.089,10.273-53.709,33.053-79.97c3.366,35.471,9.641,70.65,13.041,106.165
						c5.284,54.319,9.228,108.73,12.245,163.267c0.762,13.264,1.493,26.501,2.146,39.759h5.349
						c-2.157-44.383-4.935-88.636-7.975-132.867c-3.203-47.412-6.417-94.922-13.781-141.833c-1.841-11.788-3.29-23.783-8.029-35.189
						c29.393,15.72,34.993,41.458,40.603,63.421c6.591,25.444,10.143,51.35,13.52,77.197c3.78,28.625,8.399,57.332,9.772,86.201
						c1.209,27.694,2.233,55.333,3.181,83.069h5.153c-0.97-22.497-1.918-44.961-2.876-67.403
						c-2.026-45.277-8.487-90.237-15.698-134.828c-4.293-26.435-8.323-53.442-21.167-78.527
						c-5.883-11.417-14.631-22.284-30.123-30.498c43.599,3.459,66.368,23.526,78.918,43.539c15.514,24.861,19.25,52.336,21.538,79.3
						c3.617,42.793,3.323,86.229,3.247,129.337c-0.055,19.697-0.316,39.383-0.665,59.08h6.766c0-1.373,0.022-2.756,0.022-4.091
						c0.349-44.988,0.632-90.058-1.438-134.85c-2.277-49.128,2.691-103.806-39.437-145.951
						c-13.672-13.819-35.461-25.798-66.379-28.548c-5.044,0.305-10.295,0.838-15.764,1.487
						c-30.776,8.356-47.02,27.541-56.487,43.419c-14.62,24.578-17.202,50.125-18.15,74.594c-0.839,21.886,1.362,43.457,2.756,65.197
						C1011.648,1085.939,1014.165,1118.012,1017.444,1150.014z"/>
				</g>
			</g>
		</g>
	</g>
</g>
</svg>
